<svg id="visual" viewBox="0 0 960 540" width="960" height="540" xmlns="http://www.w3.org/2000/svg" xmlns:xlink="http://www.w3.org/1999/xlink" version="1.1"><g stroke-width="1" stroke-linejoin="bevel"><path d="M528.3 278L542.3 326L653 285Z" fill="#004d48" stroke="#004d48"></path><path d="M542.3 326L641 342L653 285Z" fill="#022935" stroke="#022935"></path><path d="M653 285L621 204L528.3 278Z" fill="#004d48" stroke="#004d48"></path><path d="M641 342L712.7 305L653 285Z" fill="#03212d" stroke="#03212d"></path><path d="M653 285L767.7 200L621 204Z" fill="#004447" stroke="#004447"></path><path d="M508.3 143L458.7 199L528.3 278Z" fill="#00323c" stroke="#00323c"></path><path d="M528.3 278L417.7 361L542.3 326Z" fill="#022935" stroke="#022935"></path><path d="M767.7 200L606 125L621 204Z" fill="#004447" stroke="#004447"></path><path d="M621 204L508.3 143L528.3 278Z" fill="#003b42" stroke="#003b42"></path><path d="M417.7 361L560.3 446L542.3 326Z" fill="#004447" stroke="#004447"></path><path d="M542.3 326L560.3 446L641 342Z" fill="#03212d" stroke="#03212d"></path><path d="M641 342L742.7 344L712.7 305Z" fill="#005e3e" stroke="#005e3e"></path><path d="M650 450L742.7 344L641 342Z" fill="#003b42" stroke="#003b42"></path><path d="M712.7 305L767.7 200L653 285Z" fill="#004447" stroke="#004447"></path><path d="M606 125L508.3 143L621 204Z" fill="#041925" stroke="#041925"></path><path d="M560.3 446L650 450L641 342Z" fill="#005645" stroke="#005645"></path><path d="M458.7 199L406.7 264L528.3 278Z" fill="#003b42" stroke="#003b42"></path><path d="M406.7 264L417.7 361L528.3 278Z" fill="#00101c" stroke="#00101c"></path><path d="M606 125L501.3 115L508.3 143Z" fill="#022935" stroke="#022935"></path><path d="M508.3 143L456.7 117L458.7 199Z" fill="#003b42" stroke="#003b42"></path><path d="M292 198L308 267L406.7 264Z" fill="#004d48" stroke="#004d48"></path><path d="M826.3 217L767.7 200L712.7 305Z" fill="#005e3e" stroke="#005e3e"></path><path d="M501.3 115L456.7 117L508.3 143Z" fill="#041925" stroke="#041925"></path><path d="M742.7 344L826.3 217L712.7 305Z" fill="#022935" stroke="#022935"></path><path d="M767.7 200L763.7 83L606 125Z" fill="#003b42" stroke="#003b42"></path><path d="M650 450L741.7 486L742.7 344Z" fill="#03212d" stroke="#03212d"></path><path d="M880.3 357L885.3 246L826.3 217Z" fill="#004d48" stroke="#004d48"></path><path d="M674 540L741.7 486L650 450Z" fill="#005645" stroke="#005645"></path><path d="M406.7 540L554.3 540L560.3 446Z" fill="#03212d" stroke="#03212d"></path><path d="M560.3 446L554.3 540L650 450Z" fill="#005e3e" stroke="#005e3e"></path><path d="M840.3 103L763.7 83L767.7 200Z" fill="#00101c" stroke="#00101c"></path><path d="M606 125L536.3 0L501.3 115Z" fill="#146635" stroke="#146635"></path><path d="M501.3 115L464.7 0L456.7 117Z" fill="#022935" stroke="#022935"></path><path d="M554.3 540L674 540L650 450Z" fill="#041925" stroke="#041925"></path><path d="M417.7 361L386.7 472L560.3 446Z" fill="#00323c" stroke="#00323c"></path><path d="M306 391L386.7 472L417.7 361Z" fill="#041925" stroke="#041925"></path><path d="M292 198L406.7 264L458.7 199Z" fill="#003b42" stroke="#003b42"></path><path d="M406.7 264L308 267L417.7 361Z" fill="#005645" stroke="#005645"></path><path d="M674 540L724.7 540L741.7 486Z" fill="#004447" stroke="#004447"></path><path d="M763.7 83L642 0L606 125Z" fill="#003b42" stroke="#003b42"></path><path d="M642 0L536.3 0L606 125Z" fill="#00101c" stroke="#00101c"></path><path d="M318 120L292 198L458.7 199Z" fill="#022935" stroke="#022935"></path><path d="M880.3 357L742.7 344L882.3 463Z" fill="#003b42" stroke="#003b42"></path><path d="M880.3 357L826.3 217L742.7 344Z" fill="#00101c" stroke="#00101c"></path><path d="M826.3 217L840.3 103L767.7 200Z" fill="#03212d" stroke="#03212d"></path><path d="M882.3 463L742.7 344L741.7 486Z" fill="#022935" stroke="#022935"></path><path d="M308 267L306 391L417.7 361Z" fill="#041925" stroke="#041925"></path><path d="M960 185L840.3 103L826.3 217Z" fill="#00101c" stroke="#00101c"></path><path d="M763.7 83L771.7 0L642 0Z" fill="#03212d" stroke="#03212d"></path><path d="M318 120L458.7 199L456.7 117Z" fill="#004447" stroke="#004447"></path><path d="M308 267L209.3 358L306 391Z" fill="#003b42" stroke="#003b42"></path><path d="M536.3 0L464.7 0L501.3 115Z" fill="#005e3e" stroke="#005e3e"></path><path d="M348 485L406.7 540L386.7 472Z" fill="#146635" stroke="#146635"></path><path d="M386.7 472L406.7 540L560.3 446Z" fill="#00101c" stroke="#00101c"></path><path d="M306 391L348 485L386.7 472Z" fill="#022935" stroke="#022935"></path><path d="M325 0L318 120L456.7 117Z" fill="#005e3e" stroke="#005e3e"></path><path d="M840.3 103L771.7 0L763.7 83Z" fill="#005645" stroke="#005645"></path><path d="M887.3 540L882.3 463L741.7 486Z" fill="#022935" stroke="#022935"></path><path d="M880.3 357L960 242L885.3 246Z" fill="#041925" stroke="#041925"></path><path d="M960 381L960 242L880.3 357Z" fill="#041925" stroke="#041925"></path><path d="M885.3 246L960 185L826.3 217Z" fill="#004d48" stroke="#004d48"></path><path d="M840.3 103L870.3 0L771.7 0Z" fill="#004447" stroke="#004447"></path><path d="M882.3 463L960 381L880.3 357Z" fill="#041925" stroke="#041925"></path><path d="M960 242L960 185L885.3 246Z" fill="#004d48" stroke="#004d48"></path><path d="M186.3 239L209.3 358L308 267Z" fill="#146635" stroke="#146635"></path><path d="M195.3 476L294 540L348 485Z" fill="#03212d" stroke="#03212d"></path><path d="M348 485L294 540L406.7 540Z" fill="#041925" stroke="#041925"></path><path d="M200.3 212L308 267L292 198Z" fill="#03212d" stroke="#03212d"></path><path d="M464.7 0L325 0L456.7 117Z" fill="#004447" stroke="#004447"></path><path d="M225.3 68L200.3 212L292 198Z" fill="#041925" stroke="#041925"></path><path d="M195.3 476L348 485L306 391Z" fill="#004d48" stroke="#004d48"></path><path d="M724.7 540L887.3 540L741.7 486Z" fill="#03212d" stroke="#03212d"></path><path d="M882.3 463L960 473L960 381Z" fill="#004d48" stroke="#004d48"></path><path d="M225.3 68L292 198L318 120Z" fill="#00323c" stroke="#00323c"></path><path d="M960 68L870.3 0L840.3 103Z" fill="#022935" stroke="#022935"></path><path d="M200.3 212L186.3 239L308 267Z" fill="#003b42" stroke="#003b42"></path><path d="M887.3 540L960 473L882.3 463Z" fill="#03212d" stroke="#03212d"></path><path d="M325 0L225.3 68L318 120Z" fill="#004447" stroke="#004447"></path><path d="M91.7 193L84.7 300L186.3 239Z" fill="#004447" stroke="#004447"></path><path d="M960 185L960 68L840.3 103Z" fill="#004d48" stroke="#004d48"></path><path d="M124.7 424L195.3 476L209.3 358Z" fill="#004d48" stroke="#004d48"></path><path d="M209.3 358L195.3 476L306 391Z" fill="#146635" stroke="#146635"></path><path d="M887.3 540L960 540L960 473Z" fill="#005e3e" stroke="#005e3e"></path><path d="M960 68L960 0L870.3 0Z" fill="#041925" stroke="#041925"></path><path d="M94.7 540L185.3 540L195.3 476Z" fill="#022935" stroke="#022935"></path><path d="M195.3 476L185.3 540L294 540Z" fill="#00323c" stroke="#00323c"></path><path d="M79.7 350L124.7 424L209.3 358Z" fill="#004447" stroke="#004447"></path><path d="M84.7 300L209.3 358L186.3 239Z" fill="#005e3e" stroke="#005e3e"></path><path d="M325 0L177.3 0L225.3 68Z" fill="#004447" stroke="#004447"></path><path d="M88.7 92L91.7 193L200.3 212Z" fill="#00323c" stroke="#00323c"></path><path d="M91.7 193L186.3 239L200.3 212Z" fill="#005645" stroke="#005645"></path><path d="M88.7 92L200.3 212L225.3 68Z" fill="#00323c" stroke="#00323c"></path><path d="M0 296L79.7 350L84.7 300Z" fill="#00101c" stroke="#00101c"></path><path d="M84.7 300L79.7 350L209.3 358Z" fill="#003b42" stroke="#003b42"></path><path d="M124.7 424L94.7 540L195.3 476Z" fill="#03212d" stroke="#03212d"></path><path d="M177.3 0L88.7 92L225.3 68Z" fill="#004447" stroke="#004447"></path><path d="M91.7 193L0 296L84.7 300Z" fill="#005645" stroke="#005645"></path><path d="M0 425L94.7 540L124.7 424Z" fill="#03212d" stroke="#03212d"></path><path d="M177.3 0L94.7 0L88.7 92Z" fill="#00323c" stroke="#00323c"></path><path d="M0 174L0 296L91.7 193Z" fill="#146635" stroke="#146635"></path><path d="M79.7 350L0 425L124.7 424Z" fill="#022935" stroke="#022935"></path><path d="M0 174L91.7 193L88.7 92Z" fill="#022935" stroke="#022935"></path><path d="M0 296L0 393L79.7 350Z" fill="#041925" stroke="#041925"></path><path d="M0 73L0 174L88.7 92Z" fill="#03212d" stroke="#03212d"></path><path d="M0 393L0 425L79.7 350Z" fill="#03212d" stroke="#03212d"></path><path d="M94.7 0L0 73L88.7 92Z" fill="#00101c" stroke="#00101c"></path><path d="M0 425L0 540L94.7 540Z" fill="#146635" stroke="#146635"></path><path d="M94.7 0L0 0L0 73Z" fill="#03212d" stroke="#03212d"></path></g></svg>