<?xml version="1.0" standalone="no"?>
<!DOCTYPE svg PUBLIC "-//W3C//DTD SVG 20010904//EN"
 "http://www.w3.org/TR/2001/REC-SVG-20010904/DTD/svg10.dtd">
<svg version="1.0" xmlns="http://www.w3.org/2000/svg"
 width="512.000000pt" height="512.000000pt" viewBox="0 0 512.000000 512.000000"
 preserveAspectRatio="xMidYMid meet">
<metadata>
Created by potrace 1.16, written by Peter Selinger 2001-2019
</metadata>
<g transform="translate(0.000000,512.000000) scale(0.100000,-0.100000)"
fill="#000000" stroke="none">
<path d="M2493 4706 c-39 -18 -73 -70 -73 -111 0 -37 32 -91 59 -100 16 -5 21
-15 21 -40 0 -38 15 -32 -189 -71 -109 -21 -214 -55 -319 -104 -79 -37 -84
-42 -107 -92 -13 -29 -27 -75 -31 -103 -8 -59 -18 -75 -50 -75 -37 0 -110 -40
-127 -69 -35 -59 -31 -189 9 -310 24 -70 76 -115 155 -134 23 -6 28 -14 34
-53 5 -38 16 -55 60 -100 30 -29 65 -56 79 -60 13 -3 95 -4 181 -2 l156 3 -3
-40 -3 -40 -135 -3 c-125 -2 -137 -4 -171 -27 -36 -25 -119 -45 -191 -45 -50
0 -87 -33 -94 -85 -3 -22 -7 -50 -10 -62 l-4 -22 -238 6 -238 6 -21 -26 c-28
-35 -43 -120 -52 -293 -11 -210 -1 -252 82 -340 l29 -32 -87 -243 c-99 -277
-105 -302 -81 -328 15 -17 15 -19 -5 -37 -55 -49 -74 -152 -40 -214 11 -19 33
-63 50 -97 16 -34 39 -66 50 -73 13 -6 21 -21 21 -36 0 -16 17 -43 46 -74 39
-41 58 -53 114 -70 90 -27 116 -26 136 5 11 17 25 25 44 25 16 0 40 4 54 10
22 8 26 16 26 50 0 36 -4 43 -35 61 -19 12 -35 27 -35 35 0 7 -16 29 -37 47
-32 30 -37 41 -41 90 -4 46 -2 57 10 57 18 0 37 -21 70 -80 15 -25 37 -52 51
-59 29 -16 64 -7 72 18 8 26 -41 170 -75 217 -24 34 -27 43 -16 55 8 8 26 52
41 99 15 47 41 120 57 162 l29 78 25 -30 c29 -34 207 -143 212 -129 2 5 249 9
587 9 l583 0 74 39 c51 27 92 40 136 45 72 8 76 2 35 -53 -63 -87 -83 -101
-138 -101 -28 0 -57 6 -64 13 -9 9 -146 12 -614 12 -683 0 -629 7 -664 -84
-20 -52 -21 -129 -4 -294 9 -91 9 -112 -4 -136 -8 -16 -20 -61 -26 -100 -14
-84 -2 -159 36 -233 l25 -48 -27 0 c-42 -1 -109 -35 -129 -65 -10 -15 -36 -80
-59 -144 l-40 -116 -55 -2 c-30 -2 -71 -6 -90 -9 -33 -5 -34 -7 -15 -20 17
-12 10 -14 -66 -15 -65 0 -78 -2 -60 -10 81 -32 2365 -30 2345 2 -3 5 -31 9
-62 10 -49 0 -54 2 -32 11 34 14 20 18 -111 26 l-114 7 -16 128 c-18 142 -27
160 -91 177 -21 6 -38 14 -38 18 0 4 7 30 16 57 20 63 22 205 5 268 -8 27 -25
57 -40 70 -26 22 -26 22 -26 177 0 85 -3 176 -7 203 l-8 47 54 0 c53 0 54 0
108 63 94 108 88 84 89 337 1 124 5 239 9 255 l7 30 21 -48 c12 -27 25 -59 28
-72 3 -13 14 -31 24 -40 15 -14 16 -22 7 -56 -5 -23 -16 -43 -23 -46 -11 -4
-14 -38 -14 -154 0 -81 -7 -200 -15 -264 -17 -126 -11 -176 22 -201 11 -8 13
-13 6 -14 -7 0 -26 -19 -43 -42 -22 -30 -30 -52 -30 -83 0 -23 -7 -62 -15 -85
-20 -57 -19 -103 3 -123 44 -40 85 -6 103 83 10 54 17 66 62 106 27 24 51 43
53 41 2 -1 8 -33 14 -69 10 -63 9 -69 -14 -103 -13 -19 -27 -53 -31 -74 -3
-22 -17 -49 -31 -62 -27 -26 -32 -70 -9 -89 21 -17 77 -7 115 22 20 15 42 22
61 20 43 -5 93 50 109 119 7 28 21 60 31 70 20 20 26 71 21 174 -2 46 0 51 27
67 47 26 54 71 55 340 l1 237 -33 34 c-36 37 -82 126 -82 158 0 22 4 23 31 9
25 -14 63 22 79 76 18 60 25 312 10 402 -13 82 -49 174 -81 208 -19 20 -26 21
-222 16 l-202 -5 -12 45 c-16 60 -43 91 -119 135 -141 83 -141 83 -239 83 -49
0 -119 3 -155 6 -64 6 -66 7 -76 40 l-11 33 135 3 135 3 60 68 c43 48 64 80
72 115 11 40 16 47 36 45 74 -6 122 43 142 145 4 19 18 47 32 64 34 41 34 113
-1 188 -42 92 -68 118 -132 136 -65 18 -79 32 -151 149 -27 44 -60 90 -73 102
-44 41 -250 89 -426 100 -108 6 -132 16 -132 53 0 11 9 24 20 30 28 15 50 63
50 110 0 82 -91 140 -167 106z m64 -12 c-3 -3 -12 -4 -19 -1 -8 3 -5 6 6 6 11
1 17 -2 13 -5z m-37 -8 c0 -2 -7 -7 -16 -10 -8 -3 -12 -2 -9 4 6 10 25 14 25
6z m85 -16 c26 -28 15 -31 -12 -3 -12 13 -19 23 -14 23 4 0 16 -9 26 -20z
m-25 -20 c25 -25 26 -81 3 -103 -10 -8 -35 -17 -57 -18 -30 -3 -42 1 -57 20
-10 13 -19 35 -18 50 1 23 2 22 9 -8 4 -18 15 -41 25 -50 15 -15 15 -14 1 14
-21 40 -20 57 5 89 25 31 61 34 89 6z m47 -52 c-3 -7 -5 -2 -5 12 0 14 2 19 5
13 2 -7 2 -19 0 -25z m-77 -133 c0 -8 -4 -15 -10 -15 -5 0 -10 7 -10 15 0 8 5
15 10 15 6 0 10 -7 10 -15z m10 -50 c0 -8 -9 -15 -20 -15 -22 0 -27 15 -7 23
21 9 27 7 27 -8z m245 -56 c65 -8 273 -54 281 -62 1 -1 -4 -10 -11 -21 -13
-18 -17 -18 -94 -2 -299 60 -622 41 -1001 -60 l-25 -6 23 17 c36 27 226 95
326 116 173 38 299 43 501 18z m362 -147 c23 -37 42 -74 43 -82 6 -42 -3 -38
-39 17 -21 33 -51 72 -67 86 -23 21 -25 28 -15 41 19 23 33 12 78 -62z m-187
38 c25 -6 58 -13 74 -15 36 -5 56 -23 106 -100 37 -56 39 -65 29 -91 -6 -16
-13 -86 -16 -155 -6 -143 10 -244 52 -318 48 -83 30 -105 -50 -62 -30 16 -55
25 -55 20 0 -5 15 -16 33 -25 l32 -16 -40 -43 c-73 -79 -87 -82 -373 -94 -139
-6 -362 -11 -495 -11 -335 0 -336 1 -364 220 -22 168 -25 506 -5 562 11 31 21
40 66 57 67 25 222 58 356 76 127 17 580 14 650 -5z m327 -267 c-25 -75 -34
-232 -17 -302 6 -28 22 -66 34 -84 l22 -33 -33 4 c-27 3 -38 12 -52 41 -48 93
-55 306 -12 389 17 34 26 42 50 42 l28 0 -20 -57z m87 28 c18 -7 18 -8 2 -14
-24 -9 -54 -82 -62 -149 -11 -97 27 -208 73 -208 19 0 16 -24 -6 -44 -18 -16
-20 -16 -39 9 -37 47 -47 94 -47 220 1 90 5 129 17 158 17 37 27 42 62 28z
m-1535 -386 c9 -36 8 -38 -5 -20 -41 55 -59 250 -32 340 12 37 13 27 19 -120
4 -88 12 -178 18 -200z m1601 309 c14 -36 13 -39 -11 -18 -28 25 -50 10 -68
-46 -12 -38 -12 -52 0 -99 11 -45 18 -57 37 -59 23 -3 29 -16 13 -26 -35 -22
-66 43 -65 134 0 85 23 140 59 140 18 0 28 -7 35 -26z m-1683 -124 l-2 -140
-27 0 c-22 0 -28 7 -42 47 -19 56 -21 158 -3 193 7 15 25 28 42 31 17 4 31 7
32 8 1 0 1 -62 0 -139z m1677 61 c3 -5 0 -11 -8 -14 -15 -6 -28 -59 -20 -81 9
-23 33 -7 43 28 10 31 10 31 8 -9 -2 -33 -6 -41 -24 -43 -38 -6 -66 62 -47
112 7 17 39 22 48 7z m-235 -410 c12 -8 12 -12 0 -28 -26 -38 -89 -103 -98
-103 -26 0 -18 26 26 80 52 64 51 64 72 51z m-426 -217 c22 -4 37 -12 37 -20
0 -11 -39 -14 -210 -14 -178 0 -210 2 -210 15 0 12 27 15 158 18 86 1 164 3
172 5 8 1 32 -1 53 -4z m440 -87 l32 -14 -36 -17 c-20 -9 -55 -33 -77 -52 -22
-19 -47 -34 -55 -34 -9 0 -19 -4 -22 -10 -7 -11 -173 -13 -277 -3 l-68 6 29
21 c16 12 51 46 77 75 l48 54 158 -7 c93 -3 172 -12 191 -19z m-433 3 c0 -6
-72 -10 -195 -10 -123 0 -195 4 -195 10 0 6 72 10 195 10 123 0 195 -4 195
-10z m-440 -7 c0 -3 -16 -34 -36 -68 l-37 -63 -158 -1 c-88 -1 -159 2 -159 7
0 5 29 37 64 70 l64 62 131 0 c72 0 131 -3 131 -7z m414 -53 c-5 -5 -89 -10
-187 -12 -136 -2 -177 0 -177 10 0 9 44 12 187 12 119 0 184 -3 177 -10z m621
-43 c32 -26 62 -74 52 -83 -2 -2 -20 12 -41 31 -70 64 -99 60 -191 -26 l-65
-61 0 -375 0 -374 -56 -52 c-31 -29 -68 -58 -81 -65 -37 -20 -1182 -13 -1206
7 -15 12 -17 57 -16 465 0 431 5 537 25 555 5 5 45 12 88 15 l80 7 -47 -50
c-26 -28 -47 -55 -47 -61 0 -7 195 -10 614 -10 l614 0 52 41 c104 82 116 88
155 77 19 -6 50 -25 70 -41z m-957 -14 c-10 -2 -28 -2 -40 0 -13 2 -5 4 17 4
22 1 32 -1 23 -4z m968 -57 c24 -24 44 -49 44 -57 0 -10 -3 -10 -12 -1 -7 7
-30 12 -51 12 -31 0 -45 -7 -68 -31 -48 -52 -85 -220 -76 -348 11 -171 63
-246 135 -195 l22 15 0 -209 0 -209 -67 -5 c-55 -4 -79 -12 -128 -42 l-60 -36
-598 0 -597 0 -80 40 c-44 22 -80 46 -80 53 0 9 135 11 634 9 l633 -2 67 70
66 71 -6 397 -7 397 62 58 c80 73 105 75 167 13z m-1900 -81 c-26 -40 -46
-134 -46 -218 0 -85 23 -215 46 -260 l15 -28 -53 7 c-29 4 -58 11 -64 15 -13
10 -39 97 -59 194 l-15 70 6 -62 c2 -34 14 -93 24 -132 11 -39 20 -72 20 -74
0 -10 -93 12 -100 23 -30 49 -38 395 -11 463 l11 27 121 0 121 0 -16 -25z m69
8 c-50 -119 -49 -116 -49 -238 0 -100 4 -130 23 -180 28 -75 30 -98 10 -103
-29 -6 -74 121 -85 244 -11 114 27 271 68 287 28 11 40 7 33 -10z m2318 1 c4
-4 -6 -22 -22 -40 -33 -37 -48 -94 -57 -219 -5 -55 -3 -85 3 -85 6 0 12 42 15
98 10 195 75 259 122 120 36 -108 38 -364 4 -435 -19 -39 -32 -38 -78 3 -53
48 -69 81 -85 168 l-13 71 -1 -55 c-1 -79 15 -126 61 -176 23 -25 39 -46 37
-47 -53 -35 -319 -63 -319 -34 0 10 18 14 60 16 33 1 84 6 113 11 28 4 66 6
82 3 l30 -6 -31 29 c-36 34 -63 108 -75 207 l-8 72 4 -85 c2 -47 11 -107 20
-133 10 -27 14 -52 9 -57 -5 -4 -37 -11 -71 -15 l-62 -7 -20 66 c-46 148 -64
341 -45 480 l7 46 124 0 124 0 -12 -22 c-10 -20 -8 -20 17 5 27 26 54 34 67
21z m-2163 -17 c0 -7 -8 -38 -17 -68 -14 -41 -18 -89 -18 -202 l0 -147 -28 0
c-24 0 -32 7 -54 57 -46 101 -34 287 23 348 26 28 94 36 94 12z m1825 -24
c-22 -121 2 -381 49 -511 13 -37 13 -44 1 -48 -35 -14 -49 1 -72 75 -52 167
-63 310 -32 451 14 66 16 70 40 70 19 0 21 -4 14 -37z m-117 -10 c-15 -38 -22
-286 -10 -350 l9 -53 -29 0 c-24 0 -29 -3 -24 -17 4 -11 -2 -8 -13 7 -62 78
-56 330 10 413 12 16 30 27 44 27 23 0 24 -2 13 -27z m-2186 -451 c7 -5 39
-18 71 -27 54 -16 57 -18 51 -43 -10 -43 -19 -45 -62 -18 -51 32 -82 76 -88
123 -4 38 -4 38 6 7 5 -17 16 -36 22 -42z m419 -28 c17 -8 29 -18 26 -20 -9
-9 -88 17 -82 26 9 14 21 12 56 -6z m-1 -81 c0 -14 -7 -13 -140 10 -43 8 -66
17 -68 27 -2 13 11 13 103 -5 69 -13 105 -24 105 -32z m-97 -19 c60 -11 94
-21 88 -27 -5 -5 -39 -3 -87 8 -44 9 -89 18 -101 21 -13 2 -23 9 -23 14 0 5 6
8 13 6 6 -3 56 -12 110 -22z m-70 -48 c112 -29 146 -45 181 -86 20 -24 24 -38
20 -58 -9 -37 -65 -215 -71 -225 -3 -5 -19 4 -37 20 -48 45 -77 60 -124 61
-24 1 -48 4 -52 7 -13 8 -132 -13 -144 -25 -8 -8 -3 -8 17 -1 41 16 135 13
196 -5 30 -9 69 -30 92 -51 42 -38 43 -44 19 -109 l-11 -27 -27 26 c-29 28
-90 57 -119 57 -10 0 5 -11 32 -24 28 -12 56 -31 64 -40 12 -15 9 -14 -20 3
-52 31 -156 54 -208 47 -24 -3 -68 -17 -98 -30 -53 -25 -62 -22 -42 16 6 11
12 30 14 42 2 11 17 55 34 96 16 41 46 122 66 180 21 58 43 115 51 128 19 29
47 28 167 -2z m2297 -26 c0 -17 -7 -20 -52 -21 -29 0 -71 -4 -93 -9 -31 -7
-19 -8 52 -5 51 2 95 0 98 -5 9 -14 -24 -20 -111 -20 l-84 0 0 34 c0 34 1 35
48 39 126 10 142 8 142 -13z m94 -120 c23 -8 26 -15 26 -57 1 -87 19 -468 24
-485 6 -26 -1 -22 -37 19 -76 86 -223 110 -331 54 l-56 -30 0 49 c0 47 3 52
41 79 39 29 132 56 224 65 22 2 -1 2 -51 1 -54 -2 -106 -10 -128 -19 -21 -9
-40 -16 -42 -16 -2 0 -4 76 -4 169 0 153 2 170 18 174 34 9 291 7 316 -3z m84
-139 c6 -99 -7 -351 -18 -351 -9 0 -18 151 -22 347 -3 121 -3 122 16 103 15
-14 20 -38 24 -99z m-2571 -207 c13 -4 20 -11 17 -19 -4 -9 4 -15 23 -17 27
-3 28 -4 25 -58 -2 -30 -5 -56 -6 -57 -1 -2 -26 6 -54 17 -97 37 -221 22 -279
-32 -18 -17 -23 -18 -23 -6 0 8 8 26 19 39 10 13 19 26 19 29 2 18 16 40 25
40 5 0 2 -10 -9 -22 l-19 -23 22 19 c13 10 20 22 18 27 -7 11 44 45 85 57 40
12 105 14 137 6z m1149 -97 c0 -91 4 -105 61 -234 4 -10 -13 -13 -68 -13 -105
1 -149 13 -185 53 -45 49 -66 163 -48 256 l7 31 116 0 116 0 1 -93z m90 85 c7
-4 13 -50 16 -107 5 -97 22 -158 48 -167 7 -2 5 -10 -4 -23 -14 -19 -15 -19
-34 -2 -43 39 -92 186 -92 273 0 30 3 34 28 34 15 0 32 -4 38 -8z m-1136 -77
c0 -5 -5 -3 -10 5 -5 8 -10 20 -10 25 0 6 5 3 10 -5 5 -8 10 -19 10 -25z m565
7 l100 -3 0 -65 0 -64 -90 0 c-49 0 -107 3 -127 6 -43 7 -47 21 -27 100 9 36
15 44 28 37 9 -4 61 -9 116 -11z m989 -60 c-4 -34 -11 -62 -15 -62 -15 0 -11
118 4 123 18 6 18 6 11 -61z m-854 -7 c0 -37 -4 -65 -10 -65 -11 0 -14 113 -3
123 12 13 13 7 13 -58z m813 -2 l4 -53 -117 0 c-64 0 -119 2 -121 4 -2 2 -2
27 -1 55 l4 50 111 3 c62 2 113 1 114 -2 1 -3 3 -29 6 -57z m161 31 c10 -26 7
-126 -6 -169 l-11 -40 -13 30 c-7 17 -12 59 -12 95 l2 65 3 -60 c7 -99 25 -93
21 8 -3 83 2 106 16 71z m-1600 -47 l19 -26 -24 -20 -24 -21 -27 32 c-30 35
-35 57 -16 76 14 14 42 -1 72 -41z m2212 -13 c21 -14 50 -42 64 -62 22 -32 25
-50 28 -137 l3 -100 -21 42 c-30 58 -109 130 -153 138 -37 7 -47 28 -47 98 0
30 0 30 47 23 61 -8 50 3 -14 14 l-48 8 50 1 c39 1 60 -5 91 -25z m-2481 -20
c-9 -15 -17 -41 -17 -58 0 -30 -1 -31 -39 -28 l-38 4 15 37 c17 40 50 70 78
71 17 0 18 -1 1 -26z m85 11 c20 -25 5 -84 -32 -122 -33 -34 -33 -34 -40 -11
-12 44 -8 83 12 116 21 35 41 40 60 17z m1330 -31 c0 -32 -4 -44 -12 -42 -17
6 -22 42 -8 67 16 31 20 26 20 -25z m926 -61 c-1 -1 -13 -4 -29 -8 -26 -7 -27
-6 -27 32 0 27 7 47 23 63 l22 25 6 -55 c3 -30 5 -56 5 -57z m-2475 0 c-12
-38 -17 -43 -19 -25 -3 19 20 72 32 72 2 0 -4 -21 -13 -47z m2399 0 c0 -19 -9
-48 -21 -64 -26 -37 -14 -37 24 -1 l30 27 -17 -27 c-21 -32 -42 -41 -66 -28
-10 6 -28 10 -39 10 -18 0 -19 3 -10 28 12 33 79 103 91 96 4 -3 8 -21 8 -41z
m-1932 3 c16 -32 15 -34 -25 -42 -26 -5 -33 -2 -43 17 -11 20 -10 25 10 41 28
23 41 19 58 -16z m663 -91 l4 -60 -32 -3 -33 -3 0 70 c0 65 2 70 23 73 29 4
34 -6 38 -77z m-1021 48 l22 -28 -39 -17 c-53 -23 -53 -23 -53 21 0 38 5 44
42 50 4 0 16 -11 28 -26z m920 -12 c0 -21 3 -53 6 -70 l7 -31 -135 0 -135 0
-7 31 c-3 17 -3 49 0 70 l7 39 128 0 129 0 0 -39z m17 -13 c-2 -13 -4 -5 -4
17 -1 22 1 32 4 23 2 -10 2 -28 0 -40z m813 -18 l0 -70 -124 0 c-142 0 -141
-1 -130 87 l6 53 124 0 124 0 0 -70z m79 33 c6 -21 11 -53 11 -70 0 -31 -2
-33 -35 -33 l-35 0 0 64 c0 63 5 73 37 75 7 1 17 -16 22 -36z m628 -27 c15
-13 26 -26 23 -28 -3 -1 -20 -11 -37 -20 -26 -13 -33 -14 -33 -4 0 8 -3 28 -6
45 -8 39 12 42 53 7z m-2376 -33 c-9 -16 -10 -14 -11 12 0 21 3 26 11 18 8 -8
8 -16 0 -30z m-179 -2 c3 -21 1 -28 -9 -24 -14 6 -16 14 -7 37 9 22 11 20 16
-13z m1548 -20 c0 -15 -9 -36 -20 -46 -31 -28 -44 -83 -45 -190 0 -88 3 -106
26 -152 l25 -52 -22 -12 c-30 -16 -48 -63 -75 -197 -21 -105 -24 -112 -46
-112 -29 0 -29 0 -48 129 -16 112 -31 146 -72 162 -16 6 -23 14 -19 24 44 116
48 306 7 384 -14 28 -33 47 -52 54 -16 6 -29 17 -29 24 0 10 32 11 143 7 81
-4 157 -2 177 3 43 12 50 9 50 -26z m-1436 -11 c9 -29 7 -35 -18 -57 -15 -13
-32 -21 -37 -18 -15 10 -10 77 8 97 22 25 36 18 47 -22z m2211 0 c3 -5 3 -25
0 -43 -6 -30 -10 -33 -32 -29 -30 6 -37 21 -24 55 11 27 44 37 56 17z m275
-38 c0 -27 -3 -51 -6 -55 -4 -3 -19 0 -35 9 -47 24 -31 94 22 94 16 0 19 -7
19 -48z m-2364 21 c18 -24 17 -50 -1 -57 -9 -3 -21 4 -31 19 -27 42 2 77 32
38z m94 -14 c0 -6 -4 -7 -10 -4 -5 3 -10 11 -10 16 0 6 5 7 10 4 6 -3 10 -11
10 -16z m2330 -54 c0 -48 -12 -76 -26 -62 -9 9 8 127 17 121 5 -3 9 -29 9 -59z
m-1456 29 c21 -21 21 -21 -12 -16 -33 4 -58 -19 -78 -75 -26 -74 -13 -214 24
-257 13 -15 14 -18 3 -14 -8 2 -24 17 -35 32 -17 23 -22 45 -24 129 -3 90 0
107 20 147 13 25 34 51 48 57 32 16 35 16 54 -3z m802 -19 c-27 -28 -38 -88
-34 -192 2 -70 0 -96 -7 -85 -5 9 -10 64 -10 122 0 117 15 170 47 170 18 0 18
-2 4 -15z m-1662 -16 c5 -4 6 -14 3 -23 -5 -13 -11 -13 -46 1 -32 13 -39 19
-30 29 11 14 55 10 73 -7z m1412 -9 c115 0 173 -3 169 -10 -3 -6 -7 -53 -7
-105 l0 -95 -188 0 -188 0 -7 30 c-8 34 3 153 17 190 8 22 10 23 19 8 9 -16
29 -18 185 -18z m-831 0 c136 0 147 -1 140 -17 -5 -10 -10 -60 -13 -110 l-4
-93 -158 0 c-155 0 -158 0 -164 23 -10 37 -7 152 5 185 9 27 14 30 29 22 10
-6 85 -10 165 -10z m-785 -14 c13 -15 20 -32 17 -40 -9 -24 -22 -20 -52 16
-20 24 -23 33 -13 39 19 13 22 11 48 -15z m265 10 c18 -13 18 -14 -3 -25 -28
-15 -42 -7 -35 19 6 24 13 25 38 6z m2124 -20 l23 -25 -22 -35 c-18 -31 -24
-34 -41 -25 -29 15 -32 32 -15 73 18 43 25 44 55 12z m-239 6 c0 -13 -12 -22
-22 -16 -10 6 -1 24 13 24 5 0 9 -4 9 -8z m-1995 -12 c18 -8 18 -9 -5 -9 -14
0 -32 4 -40 9 -12 8 -12 10 5 9 11 0 29 -4 40 -9z m-20 -51 c5 -6 1 -9 -10 -9
-35 0 -65 12 -65 26 0 10 7 11 33 2 17 -6 36 -15 42 -19z m935 -13 c0 -11 -5
-34 -12 -52 -10 -30 -5 -74 9 -61 3 4 12 30 19 59 l14 53 -5 -48 c-3 -26 -10
-57 -16 -69 -28 -52 -62 57 -39 127 9 27 15 34 21 24 5 -8 9 -23 9 -33z m813
-43 c-3 -43 -7 -80 -9 -82 -2 -2 -4 32 -4 77 0 47 4 82 10 82 6 0 7 -29 3 -77z
m24 -40 c-2 -21 -4 -6 -4 32 0 39 2 55 4 38 2 -18 2 -50 0 -70z m571 50 c-12
-13 -32 -23 -45 -23 l-23 0 22 33 c19 30 24 32 44 23 l23 -11 -21 -22z m-150
-61 c-15 -17 -52 -11 -56 9 -4 24 40 40 55 20 8 -11 8 -20 1 -29z m-540 -104
c7 -17 8 -28 2 -28 -6 0 -10 1 -10 3 0 1 -4 18 -10 36 -11 38 0 31 18 -11z
m-74 4 c22 -4 41 -13 44 -20 3 -9 -27 -12 -127 -12 -72 0 -131 4 -131 8 0 31
109 43 214 24z m-796 -8 c50 -14 16 -24 -77 -24 -106 0 -161 7 -161 21 0 10
202 12 238 3z m-71 -80 l60 -7 -31 -47 c-17 -26 -46 -84 -65 -129 l-35 -81
-188 0 c-144 0 -188 3 -188 12 0 7 14 54 30 104 40 119 59 137 153 145 108 9
197 10 264 3z m850 -1 l151 -6 -16 -36 c-8 -20 -27 -76 -42 -126 l-26 -90
-207 -3 -207 -2 6 42 c23 154 34 204 51 215 19 15 75 16 290 6z m-587 -26 c26
-13 39 -55 53 -179 l7 -58 -165 0 c-105 0 -165 4 -165 10 0 21 51 136 77 173
15 21 38 45 52 52 32 18 108 19 141 2z m874 -9 c13 -20 43 -215 34 -222 -2 -2
-51 -6 -110 -9 l-107 -7 5 33 c22 119 57 208 87 221 33 13 77 5 91 -16z"/>
<path d="M2869 4184 c-16 -20 -1 -48 29 -52 27 -4 49 33 31 54 -15 19 -43 18
-60 -2z m41 -24 c0 -5 -4 -10 -10 -10 -5 0 -10 5 -10 10 0 6 5 10 10 10 6 0
10 -4 10 -10z"/>
<path d="M1984 4105 c-8 -21 2 -45 19 -45 8 0 20 7 27 15 10 12 10 18 0 30 -7
8 -19 15 -27 15 -7 0 -16 -7 -19 -15z"/>
<path d="M2705 4016 c-65 -39 -91 -106 -86 -224 5 -122 160 -197 263 -126 90
63 105 198 30 277 -38 40 -74 57 -122 57 -52 0 -90 -20 -129 -67 -17 -21 -31
-31 -31 -24 0 8 19 33 43 56 72 73 164 80 243 19 38 -28 74 -98 74 -142 0 -18
5 -32 10 -32 29 0 -9 121 -53 168 -60 65 -169 82 -242 38z m129 -127 c48 -38
27 -120 -35 -134 -19 -5 -34 0 -54 18 -38 33 -39 81 -1 114 33 28 56 29 90 2z"/>
<path d="M2095 3981 c-16 -10 -39 -29 -50 -42 l-20 -24 20 16 c77 63 179 65
244 6 l24 -22 -14 23 c-33 56 -145 80 -204 43z"/>
<path d="M2104 3951 c-34 -15 -82 -69 -94 -107 -16 -48 -8 -129 17 -162 23
-32 97 -72 132 -72 42 0 107 39 136 81 54 77 36 189 -37 243 -30 21 -120 32
-154 17z m110 -103 c24 -34 20 -73 -10 -97 -15 -12 -34 -21 -43 -21 -28 0 -61
38 -61 70 0 62 81 95 114 48z"/>
<path d="M2953 3518 c-23 -30 -23 -49 2 -74 27 -27 37 -29 66 -14 22 12 27 68
7 88 -16 16 -63 15 -75 0z m55 -40 c-2 -13 -10 -23 -18 -23 -8 0 -16 10 -18
23 -3 17 2 22 18 22 16 0 21 -5 18 -22z"/>
<path d="M2480 3486 c-145 -8 -195 -14 -194 -23 4 -49 -9 -46 182 -39 97 4
207 9 245 13 66 5 67 6 67 34 0 34 20 33 -300 15z"/>
<path d="M1986 3474 c-22 -21 -20 -47 4 -69 41 -37 102 24 64 66 -21 23 -47
24 -68 3z m47 -29 c1 -5 -6 -11 -15 -13 -11 -2 -18 3 -18 13 0 17 30 18 33 0z"/>
<path d="M2750 2921 c0 -5 74 -9 168 -10 104 0 160 3 147 9 -27 12 -315 13
-315 1z"/>
<path d="M1928 2913 c56 -2 148 -2 205 0 56 1 10 3 -103 3 -113 0 -159 -2
-102 -3z"/>
<path d="M2804 2870 c-31 -12 -74 -68 -74 -96 0 -65 52 -109 130 -109 102 0
157 74 115 155 -27 51 -109 75 -171 50z m120 -52 c37 -52 5 -110 -61 -112 -53
-1 -73 17 -73 65 0 46 27 69 82 69 27 0 41 -6 52 -22z"/>
<path d="M1934 2852 c-6 -4 -16 -17 -23 -30 -30 -56 59 -102 94 -48 31 47 -25
109 -71 78z m36 -47 c0 -8 -7 -15 -15 -15 -8 0 -15 7 -15 15 0 8 7 15 15 15 8
0 15 -7 15 -15z"/>
<path d="M1846 2711 c-4 -6 -5 -15 -2 -20 3 -5 153 -10 336 -10 211 -1 341 -6
362 -13 51 -17 86 -45 113 -92 22 -38 25 -54 25 -144 0 -67 4 -102 11 -102 7
0 10 40 7 123 -3 112 -5 127 -28 161 -14 20 -45 50 -69 66 l-44 30 -211 0
c-116 0 -274 3 -352 7 -102 4 -143 3 -148 -6z"/>
<path d="M2591 2581 c32 -33 36 -49 14 -57 -11 -5 -15 -22 -15 -66 0 -72 -20
-111 -68 -134 -41 -19 -90 -14 -131 15 -60 43 -80 143 -39 197 l21 29 -28 -27
c-56 -53 -44 -187 23 -257 70 -74 162 -79 231 -13 38 36 39 40 46 124 4 48 4
103 1 122 -7 34 -54 96 -74 96 -6 0 3 -13 19 -29z"/>
<path d="M3064 2515 c0 -55 1 -76 3 -47 2 29 2 74 0 100 -2 26 -3 2 -3 -53z"/>
<path d="M2740 2431 c0 -74 4 -121 10 -121 6 0 10 45 10 114 0 66 -4 117 -10
121 -6 4 -10 -37 -10 -114z"/>
<path d="M2049 2401 c-73 -73 -1 -198 94 -162 35 14 59 53 59 98 0 29 -7 43
-31 65 -42 38 -83 37 -122 -1z m91 -36 c11 -13 7 -15 -24 -15 -34 0 -44 8 -29
23 11 12 40 8 53 -8z m5 -64 c-8 -13 -52 -14 -60 -2 -3 5 9 11 27 13 39 4 42
3 33 -11z"/>
<path d="M3052 2390 c0 -14 2 -19 5 -12 2 6 2 18 0 25 -3 6 -5 1 -5 -13z"/>
<path d="M1826 2154 c-29 -28 -13 -74 24 -74 19 0 50 30 50 48 0 15 -29 42
-45 42 -7 0 -21 -7 -29 -16z m44 -24 c0 -5 -7 -10 -15 -10 -8 0 -15 5 -15 10
0 6 7 10 15 10 8 0 15 -4 15 -10z"/>
<path d="M2931 2156 c-16 -19 -11 -46 12 -60 25 -16 52 4 52 40 0 24 -5 30
-26 32 -14 2 -31 -4 -38 -12z m47 -24 c2 -7 -6 -12 -17 -12 -21 0 -27 11 -14
24 9 9 26 2 31 -12z"/>
<path d="M3271 2219 c-1 -155 3 -166 64 -155 48 9 44 26 -5 26 l-40 0 -1 108
c-1 59 -5 118 -9 132 -5 15 -8 -27 -9 -111z"/>
<path d="M3893 2668 c-19 -24 -24 -52 -17 -93 8 -54 17 -69 41 -61 19 6 21 13
24 90 3 59 -24 94 -48 64z m14 -90 c-2 -13 -4 -3 -4 22 0 25 2 35 4 23 2 -13
2 -33 0 -45z"/>
<path d="M3900 2370 c-9 -6 -10 -10 -3 -10 6 0 15 5 18 10 8 12 4 12 -15 0z"/>
<path d="M1375 2220 c-4 -6 16 -10 52 -10 32 0 76 -2 98 -5 37 -4 37 -3 -10 9
-60 17 -131 20 -140 6z"/>
<path d="M1224 1888 l-29 -33 33 29 c17 17 32 31 32 33 0 8 -8 1 -36 -29z"/>
<path d="M1398 1823 c7 -3 16 -2 19 1 4 3 -2 6 -13 5 -11 0 -14 -3 -6 -6z"/>
<path d="M2583 473 c9 -2 23 -2 30 0 6 3 -1 5 -18 5 -16 0 -22 -2 -12 -5z"/>
</g>
</svg>