<svg id="visual" viewBox="0 0 450 900" width="450" height="900" xmlns="http://www.w3.org/2000/svg" xmlns:xlink="http://www.w3.org/1999/xlink" version="1.1"><rect x="0" y="0" width="450" height="900" fill="#daf2e2"></rect><defs><linearGradient id="grad1_0" x1="0%" y1="0%" x2="100%" y2="100%"><stop offset="30%" stop-color="#15813f" stop-opacity="1"></stop><stop offset="70%" stop-color="#15813f" stop-opacity="1"></stop></linearGradient></defs><defs><linearGradient id="grad1_1" x1="0%" y1="0%" x2="100%" y2="100%"><stop offset="30%" stop-color="#15813f" stop-opacity="1"></stop><stop offset="70%" stop-color="#7eb98f" stop-opacity="1"></stop></linearGradient></defs><defs><linearGradient id="grad1_2" x1="0%" y1="0%" x2="100%" y2="100%"><stop offset="30%" stop-color="#daf2e2" stop-opacity="1"></stop><stop offset="70%" stop-color="#7eb98f" stop-opacity="1"></stop></linearGradient></defs><defs><linearGradient id="grad2_0" x1="0%" y1="0%" x2="100%" y2="100%"><stop offset="30%" stop-color="#15813f" stop-opacity="1"></stop><stop offset="70%" stop-color="#15813f" stop-opacity="1"></stop></linearGradient></defs><defs><linearGradient id="grad2_1" x1="0%" y1="0%" x2="100%" y2="100%"><stop offset="30%" stop-color="#7eb98f" stop-opacity="1"></stop><stop offset="70%" stop-color="#15813f" stop-opacity="1"></stop></linearGradient></defs><defs><linearGradient id="grad2_2" x1="0%" y1="0%" x2="100%" y2="100%"><stop offset="30%" stop-color="#7eb98f" stop-opacity="1"></stop><stop offset="70%" stop-color="#daf2e2" stop-opacity="1"></stop></linearGradient></defs><g transform="translate(450, 0)"><path d="M0 405C-51.6 393.4 -103.2 381.8 -149.6 361.2C-196 340.7 -237.2 311.2 -276.5 276.5C-315.7 241.8 -353.1 201.9 -374.2 155C-395.3 108 -400.1 54 -405 0L0 0Z" fill="#abd6b8"></path><path d="M0 270C-34.4 262.3 -68.8 254.5 -99.8 240.8C-130.7 227.1 -158.1 207.4 -184.3 184.3C-210.5 161.2 -235.4 134.6 -249.4 103.3C-263.5 72 -266.8 36 -270 0L0 0Z" fill="#509d67"></path><path d="M0 135C-17.2 131.1 -34.4 127.3 -49.9 120.4C-65.3 113.6 -79.1 103.7 -92.2 92.2C-105.2 80.6 -117.7 67.3 -124.7 51.7C-131.8 36 -133.4 18 -135 0L0 0Z" fill="#15813f"></path></g><g transform="translate(0, 900)"><path d="M0 -405C53.2 -399.9 106.5 -394.9 155 -374.2C203.5 -353.5 247.3 -317.2 275.1 -275.1C302.8 -232.9 314.5 -185 333.5 -138.1C352.5 -91.3 378.8 -45.7 405 0L0 0Z" fill="#abd6b8"></path><path d="M0 -270C35.5 -266.6 71 -263.2 103.3 -249.4C135.7 -235.7 164.9 -211.5 183.4 -183.4C201.9 -155.3 209.7 -123.3 222.3 -92.1C235 -60.9 252.5 -30.4 270 0L0 0Z" fill="#509d67"></path><path d="M0 -135C17.7 -133.3 35.5 -131.6 51.7 -124.7C67.8 -117.8 82.4 -105.7 91.7 -91.7C100.9 -77.6 104.8 -61.7 111.2 -46C117.5 -30.4 126.3 -15.2 135 0L0 0Z" fill="#15813f"></path></g></svg>